<svg width="28" height="28" viewBox="0 0 28 28" fill="none" xmlns="http://www.w3.org/2000/svg">
<path d="M14 2.33301C20.4432 2.33318 25.666 7.55679 25.666 14C25.6658 20.4431 20.4431 25.6658 14 25.666C7.55679 25.666 2.33318 20.4432 2.33301 14C2.33301 7.55668 7.55668 2.33301 14 2.33301ZM14 7C13.8095 7 13.6826 7.12697 13.6826 7.31738V8.39648L12.7617 8.26953C12.6031 8.23794 12.4448 8.36528 12.4131 8.55566C12.3814 8.71431 12.5079 8.87245 12.6982 8.9043L14.8574 9.15918L14.667 9.73047C14.6353 9.85743 14.667 10.0157 14.7939 10.0791L15.1426 10.333C16.7934 11.5711 19.0791 13.2222 19.0791 15.2539C19.0791 16.9681 17.6508 18.3963 15.3652 18.9678C14.9208 19.063 14.6348 19.4443 14.6348 19.8887V20.0479L14.1904 19.7305C14.0952 19.667 13.9361 19.667 13.8408 19.7305L13.3965 20.0479V19.8887C13.3964 19.4444 13.1113 19.0631 12.667 18.9678C10.3495 18.3964 8.9209 16.9682 8.9209 15.2539C8.92093 13.2222 11.2066 11.5716 12.8574 10.3652L13.2061 10.1113C13.333 10.0161 13.3647 9.794 13.2695 9.66699C13.1743 9.54 12.9522 9.50828 12.8252 9.60352L12.5078 9.85742C10.7301 11.159 8.28616 12.9048 8.28613 15.2539C8.28613 17.2856 9.9047 18.9363 12.5078 19.5713C12.6348 19.603 12.7304 19.73 12.7305 19.8887V20.6504C12.7305 20.7773 12.7935 20.873 12.8887 20.9365C12.9838 21 13.1109 20.9999 13.2061 20.9365L13.9678 20.4287L14.7305 20.9365C14.7939 20.9682 14.8575 21 14.9209 21C14.9842 21 15.0157 20.9995 15.0791 20.9678C15.1743 20.9043 15.2382 20.8095 15.2383 20.6826V19.9209C15.2383 19.7623 15.3332 19.6354 15.46 19.6035C18.0949 18.9369 19.7139 17.2857 19.7139 15.2539C19.7139 12.9048 17.2699 11.159 15.4922 9.85742L15.333 9.73047L15.5869 9C15.5869 8.90476 15.5869 8.80958 15.5234 8.74609C15.4917 8.65092 15.3969 8.58698 15.3018 8.58691L14.3174 8.45996C14.381 8.17445 14.6349 7.95227 14.9521 7.95215C15.1426 7.95215 15.2695 7.82522 15.2695 7.63477C15.2695 7.44439 15.1426 7.31738 14.9521 7.31738C14.73 7.31743 14.5078 7.38086 14.3174 7.50781V7.31738C14.3173 7.12697 14.1905 7 14 7ZM14 16.5234C13.8097 16.5234 13.6828 16.6506 13.6826 16.8408V18.4287C13.6827 18.6191 13.8096 18.7461 14 18.7461C14.1904 18.7461 14.3173 18.6191 14.3174 18.4287V16.8408C14.3172 16.6506 14.1903 16.5234 14 16.5234ZM12.1592 12.1113C12.0005 12.0161 11.8091 12.0795 11.7139 12.2383C11.1108 13.3175 10.8252 14.3338 10.8252 15.3496C10.8253 16.2065 11.0157 17 11.333 17.6348C11.3965 17.73 11.4921 17.7939 11.6191 17.7939C11.6825 17.7939 11.7141 17.7933 11.7773 17.7617C11.936 17.6665 11.9995 17.4766 11.9043 17.3496C11.6186 16.7783 11.46 16.1113 11.46 15.3496C11.46 14.4607 11.7147 13.5398 12.2861 12.5557C12.3495 12.3971 12.3175 12.2066 12.1592 12.1113ZM16.2861 12.2383C16.1909 12.0796 15.9995 12.0161 15.8408 12.1113C15.6824 12.2066 15.6188 12.3971 15.7139 12.5557C16.2536 13.5398 16.5078 14.429 16.5078 15.3496C16.5078 16.0796 16.3491 16.7783 16.0635 17.3496C16.0003 17.4766 16.0641 17.6666 16.2227 17.7617C16.2544 17.7933 16.3175 17.7939 16.3809 17.7939C16.5079 17.7939 16.6035 17.73 16.667 17.6348C17.016 17 17.1748 16.2065 17.1748 15.3496C17.1748 14.3338 16.8892 13.3175 16.2861 12.2383ZM14 11.127C13.8096 11.127 13.6827 11.2539 13.6826 11.4443V15.5713C13.6826 15.7618 13.8095 15.8887 14 15.8887C14.1905 15.8887 14.3174 15.7617 14.3174 15.5713V11.4443C14.3173 11.2539 14.1904 11.127 14 11.127Z" fill="#39AD2E"/>
</svg>
