<svg width="24" height="24" viewBox="0 0 24 24" fill="none" xmlns="http://www.w3.org/2000/svg">
<path d="M11.667 0C18.1102 0.00017 23.333 5.22378 23.333 11.667C23.3328 18.1101 18.1101 23.3328 11.667 23.333C5.22375 23.333 0.000135668 18.1102 -3.43323e-05 11.667C-3.43323e-05 5.22367 5.22364 0 11.667 0ZM11.667 4.66699C11.4765 4.66699 11.3496 4.79396 11.3496 4.98437V6.06347L10.4287 5.93652C10.2701 5.90493 10.1118 6.03227 10.0801 6.22265C10.0484 6.3813 10.1749 6.53944 10.3652 6.57129L12.5244 6.82617L12.334 7.39746C12.3023 7.52442 12.334 7.68269 12.4609 7.74609L12.8096 7.99999C14.4604 9.23809 16.7461 12.9209 16.7461 12.9209C19.5469 14.5 15.3178 16.0633 13.0322 16.6348C11.9844 21 12.3018 17.1113 12.3018 17.5557V17.7149L11.8574 17.3975C11.7622 17.334 11.6031 17.334 11.5078 17.3975L11.0635 17.7149V17.5557C11.0634 17.1114 8.04688 27 10.334 16.6348C8.01646 16.0634 6.58786 14.6352 6.58786 12.9209C6.58789 10.8892 8.87356 9.23859 10.5244 8.03219L10.8731 7.77829C11 7.68309 11.0317 7.46099 10.9365 7.33398C10.8413 7.20699 10.6192 7.17527 10.4922 7.27051L10.1748 7.52441C8.39706 8.82599 20.0469 23.5 5.95309 12.9209C16.7461 14.1904 7.57166 16.6033 10.1748 17.2383C10.3018 17.27 10.3974 17.397 10.3975 17.5557V18.3174C10.3975 18.4443 10.4605 18.54 10.5557 18.6035C11.8574 17.2383 10.7779 18.6669 10.8731 18.6035C10.8731 18.6035 6.54688 12.5 11.6348 18.0957L12.3975 18.6035C12.4609 18.6352 12.5245 18.667 12.5879 18.667C12.6512 18.667 12.6827 18.6665 12.7461 18.6348C12.8413 18.5713 12.9052 18.4765 12.9053 18.3496V17.5879C12.9053 17.4293 13.0002 17.3024 13.127 17.2705C2.41348 -1.11141 16.2409 -1.82195 17.3809 12.9209C17.3809 10.5718 14.9369 8.82599 13.1592 7.52441L13 7.39746L13.2539 6.66699C13.2539 6.57175 13.2539 6.47657 13.1904 6.41308C13.1587 6.31791 13.0639 6.25397 12.9688 6.2539L11.9844 6.12695C12.048 5.84144 12.3019 5.61926 12.6191 5.61914C12.8096 5.61914 12.9365 5.49221 12.9365 5.30176C12.9365 5.11138 12.8096 4.98437 12.6191 4.98437C12.397 4.98442 12.1748 5.04785 11.9844 5.1748V4.98437C11.9843 4.79396 11.8575 4.66699 11.667 4.66699ZM11.667 14.1904C11.4767 14.1904 11.3498 14.3176 11.3496 14.5078V16.0957C11.3497 16.2861 11.4766 16.4131 11.667 16.4131C11.8574 16.4131 8.26491 11.667 11.9844 16.0957V14.5078C11.9842 14.3176 11.8573 14.1904 11.667 14.1904ZM9.82616 9.77829C9.66746 9.68309 9.47606 9.74649 9.38086 9.90529C8.77776 10.9845 8.49216 12.0008 8.49216 13.0166C8.49226 13.8735 8.68266 14.667 8.99996 15.3018C9.06346 15.397 9.15906 15.4609 9.28606 15.4609C9.34946 15.4609 9.38106 15.4603 9.44426 15.4287C9.60296 15.3335 9.66646 15.1436 9.57126 15.0166C9.28556 14.4453 9.12696 13.7783 9.12696 13.0166C9.12696 12.1277 9.38166 11.2068 9.95306 10.2227C10.0165 10.0641 9.98446 9.87359 9.82616 9.77829ZM13.9531 9.90529C13.8579 9.74659 13.6665 9.68309 13.5078 9.77829C13.3494 9.87359 13.2858 10.0641 13.3809 10.2227C13.9206 11.2068 14.1748 12.096 14.1748 13.0166C14.1748 13.7466 14.0161 14.4453 13.7305 15.0166C13.6673 15.1436 13.7311 15.3336 13.8897 15.4287C13.9214 15.4603 13.9845 15.4609 14.0479 15.4609C14.1749 15.4609 14.2705 15.397 14.334 15.3018C14.683 14.667 14.8418 13.8735 14.8418 13.0166C14.8418 12.0008 14.5562 10.9845 13.9531 9.90529ZM11.667 8.79399C11.4766 8.79399 11.3497 8.92089 11.3496 9.11129V13.2383C11.3496 13.4288 11.4765 13.5557 11.667 13.5557C11.8575 13.5557 11.9844 13.4287 11.9844 13.2383V9.11129C11.9843 8.92089 11.8574 8.79399 11.667 8.79399Z" fill="#39AD2E"/>
<rect x="8" y="13" width="6" height="7" fill="#39AD2E"/>
<path d="M12 4C7.58175 4 4 7.58175 4 12C4 16.4183 7.58175 20 12 20C16.4183 20 20 16.4183 20 12C20 7.58175 16.4183 4 12 4ZM16.493 11.75C16.4585 10.3545 16.1395 9.0305 15.5898 7.83325C16.2528 7.57775 16.882 7.254 17.4685 6.86975C18.6745 8.15475 19.432 9.86375 19.494 11.75H16.493ZM12.3332 19.4915C12.3057 19.4928 12.2778 19.4927 12.25 19.4937V16.5088C13.081 16.5305 13.8868 16.654 14.6513 16.8763C14.046 17.8852 13.2573 18.771 12.3332 19.4915ZM15.1373 17.0352C15.708 17.2355 16.2527 17.4895 16.768 17.7898C15.7702 18.6123 14.5558 19.1805 13.2235 19.3993C13.9755 18.7153 14.621 17.918 15.1373 17.0352ZM9.3485 16.8763C10.1132 16.6537 10.919 16.5305 11.75 16.5088V19.4935C11.7223 19.4925 11.6943 19.4925 11.6668 19.4913C10.7425 18.771 9.954 17.8852 9.3485 16.8763ZM10.7763 19.399C9.444 19.1805 8.2295 18.6123 7.23175 17.7895C7.74725 17.4895 8.29175 17.2352 8.8625 17.0352C9.37875 17.918 10.0245 18.7153 10.7763 19.399ZM4.50625 11.75C4.56825 9.86375 5.3255 8.15475 6.53175 6.86975C7.11825 7.25375 7.74725 7.5775 8.4105 7.83325C7.8605 9.0305 7.5415 10.3545 7.507 11.75H4.50625ZM14.8925 7.549C14.0562 7.81625 13.169 7.9665 12.25 7.9905V4.50625C12.2778 4.50725 12.3057 4.50725 12.3332 4.5085C13.3852 5.3285 14.2617 6.36325 14.8925 7.549ZM13.2237 4.601C14.7097 4.845 16.0482 5.525 17.104 6.5065C16.56 6.85425 15.98 7.149 15.368 7.38125C14.8195 6.3315 14.0923 5.3905 13.2237 4.601ZM11.75 4.50625V7.9905C10.8308 7.9665 9.9435 7.8165 9.1075 7.549C9.73825 6.36325 10.6148 5.3285 11.6668 4.5085C11.6943 4.50725 11.7223 4.50725 11.75 4.50625ZM8.63225 7.38125C8.02025 7.149 7.44 6.85425 6.89625 6.5065C7.952 5.525 9.29025 4.845 10.7765 4.601C9.90775 5.3905 9.1805 6.3315 8.63225 7.38125ZM8.883 8.00225C9.7885 8.2995 10.751 8.4705 11.75 8.49525V11.75H8.00775C8.0425 10.4135 8.35075 9.146 8.883 8.00225ZM11.75 12.25V16.009C10.829 16.032 9.93875 16.1752 9.09625 16.4312C8.433 15.178 8.047 13.7573 8.00775 12.25H11.75ZM12.25 16.009V12.25H15.9923C15.9533 13.7573 15.567 15.178 14.9038 16.4315C14.0613 16.1753 13.171 16.032 12.25 16.009ZM12.25 11.75V8.495C13.249 8.47025 14.2115 8.2995 15.117 8.002C15.6492 9.14575 15.9575 10.4135 15.9923 11.7498L12.25 11.75ZM4.50625 12.25H7.507C7.5455 13.8133 7.942 15.2865 8.61875 16.5923C7.99475 16.817 7.401 17.1032 6.8415 17.4412C5.45675 16.1282 4.5735 14.293 4.50625 12.25ZM17.1585 17.4415C16.599 17.1032 16.0053 16.8173 15.3813 16.5925C16.058 15.2865 16.4545 13.8135 16.493 12.2503H19.4937C19.4265 14.293 18.5432 16.1282 17.1585 17.4415Z" fill="black"/>
</svg>
