<svg width="25" height="25" viewBox="0 0 25 25" fill="none" xmlns="http://www.w3.org/2000/svg">
<path d="M11.3535 0.0127925C12.0476 -0.0117242 12.7424 0.00464465 13.4364 0.00283604C15.3568 0.141606 17.2482 0.725805 18.8975 1.72366C21.3749 3.19606 23.3154 5.55008 24.276 8.26795C25.0643 10.4569 25.2031 12.8655 24.7205 15.1378C24.2017 17.5319 22.9616 19.7653 21.1953 21.4626C19.3537 23.2597 16.9407 24.4644 14.3953 24.849C11.8552 25.2491 9.19355 24.8336 6.89667 23.6779C4.37381 22.4279 2.30461 20.2961 1.12531 17.7396C0.36149 16.084 -0.064867 14.2561 0.00590627 12.4282C-0.0594777 10.632 0.382316 8.84131 1.12445 7.21387C2.31917 4.62933 4.42017 2.47572 6.98288 1.23384C8.34727 0.555248 9.83857 0.155252 11.3535 0.0127925ZM11.3481 0.284943C10.4327 0.382918 9.51655 0.537161 8.64386 0.839199C5.70739 1.78722 3.17647 3.9045 1.71312 6.61964C0.777014 8.36592 0.220912 10.3472 0.278056 12.3366C0.130207 16.4215 2.3545 20.4403 5.76903 22.6446C7.80925 23.9873 10.2613 24.6894 12.7034 24.6313C15.121 24.586 17.5158 23.7913 19.4871 22.3907C21.5509 20.9301 23.1484 18.8173 23.9703 16.4252C24.8512 13.8896 24.8593 11.0602 23.9975 8.51837C23.1375 5.94657 21.3776 3.69503 19.1088 2.21362C17.6764 1.27922 16.0462 0.638754 14.3517 0.392034C13.362 0.203299 12.3487 0.284048 11.3481 0.284943Z" fill="#666666"/>
<path d="M4.54786 4.73184C4.61224 4.72821 4.74206 4.7192 4.80644 4.71555C6.17534 7.54313 7.52703 10.3789 8.91673 13.1957C10.0517 11.8803 11.2001 10.5767 12.3376 9.2631C12.4057 9.1751 12.4946 9.10705 12.5953 9.05988C12.5381 9.15424 12.4792 9.24768 12.4093 9.33296C11.2618 10.6628 10.0888 11.9719 8.95583 13.3136C9.24701 13.8914 9.51918 14.4783 9.80489 15.0598H15.2452C15.5236 14.482 15.8039 13.905 16.0788 13.3263C14.9766 12.0753 13.8817 10.818 12.7777 9.5679C12.687 9.45905 12.5736 9.3547 12.5582 9.20505C12.7396 9.35291 12.8838 9.53797 13.0381 9.71213C14.0685 10.886 15.0972 12.0608 16.1297 13.2338C17.4958 10.3934 18.8747 7.55857 20.2427 4.71916C20.3089 4.71823 20.4413 4.71644 20.5076 4.71555C20.5057 9.23137 20.5112 13.7471 20.5049 18.2631C20.3307 18.2413 20.249 18.077 20.1411 17.961C19.3228 17.0111 18.4811 16.083 17.6691 15.1297C16.9316 15.1823 16.1905 15.127 15.452 15.1605C14.4868 17.1909 13.4962 19.2084 12.5246 21.235C11.553 19.2084 10.5624 17.1899 9.59628 15.1605C8.84514 15.1388 8.09308 15.1579 7.342 15.1497C6.51104 16.0967 5.68643 17.0501 4.85549 17.9973C4.76387 18.0852 4.72394 18.2041 4.69947 18.3257H4.54158C4.54609 13.7943 4.53244 9.2631 4.54786 4.73184ZM4.74116 5.08925C4.71751 5.44849 4.7239 5.80864 4.723 6.16875C4.7239 10.1113 4.72213 14.0538 4.7239 17.9953C6.06737 16.4732 7.38734 14.931 8.73267 13.4106C7.42631 10.6257 6.03474 7.8797 4.74116 5.08925ZM20.3026 5.09197C20.151 5.49115 19.9451 5.86757 19.7655 6.25495C18.6088 8.64262 17.4558 11.0321 16.2992 13.4206C17.6264 14.9601 18.9836 16.4732 20.3125 18.0108C20.3434 14.1545 20.317 10.2973 20.3262 6.4409C20.3216 5.99094 20.3407 5.54013 20.3026 5.09197ZM7.42267 15.0598C8.12849 15.059 8.83328 15.0607 9.53911 15.0581C9.28964 14.5365 9.03564 14.0166 8.78706 13.4941C8.32809 14.0121 7.87263 14.5337 7.42267 15.0598ZM15.5101 15.059C16.2058 15.0598 16.9025 15.0607 17.5992 15.059C17.1483 14.5473 16.7011 14.0338 16.2502 13.5232C16.0035 14.0348 15.7549 14.5455 15.5101 15.059ZM9.84844 15.1551C10.7456 16.9975 11.6356 18.8427 12.5246 20.6897C13.4117 18.8409 14.3089 16.9975 15.1988 15.1505C13.4153 15.1542 11.6319 15.1442 9.84844 15.1551Z" fill="#666666"/>
</svg>
