<svg width="23" height="22" viewBox="0 0 23 22" fill="none" xmlns="http://www.w3.org/2000/svg">
<g clip-path="url(#clip0_2001_2)">
<path fill-rule="evenodd" clip-rule="evenodd" d="M17.4342 1.71812C17.4342 2.38976 16.914 2.93624 16.2726 2.93624C15.6313 2.93624 15.1111 2.39282 15.1111 1.72117C15.1111 1.04953 15.6313 0.503053 16.2726 0.5C16.914 0.5 17.4342 1.04647 17.4342 1.71812ZM17.5995 5.07024C17.5995 5.64113 17.1591 6.10213 16.6153 6.10213C16.0714 6.10213 15.631 5.64113 15.631 5.07024C15.631 4.49934 16.0714 4.03835 16.6153 4.03835C17.1591 4.03835 17.5995 4.50239 17.5995 5.07024ZM19.3163 6.505C19.8572 6.505 20.2976 6.04401 20.2976 5.47616C20.2976 4.90832 19.8572 4.44733 19.3163 4.44733C18.7755 4.44733 18.3351 4.90832 18.3351 5.47616C18.3351 6.04401 18.7755 6.505 19.3163 6.505ZM19.8314 8.33433C19.8314 8.81975 19.4561 9.21357 18.992 9.21357C18.528 9.21357 18.1526 8.81975 18.1526 8.33433C18.1526 7.84891 18.528 7.45509 18.992 7.45509C19.4561 7.45509 19.8314 7.84891 19.8314 8.33433ZM21.1547 10.092C21.6217 10.092 22 9.69515 22 9.20668C22 8.71821 21.6217 8.32133 21.1547 8.32133C20.6877 8.32133 20.3094 8.71821 20.3094 9.20668C20.3094 9.69515 20.6877 10.092 21.1547 10.092ZM17.1342 7.94656C17.1342 8.44419 16.7499 8.84717 16.2741 8.84717C15.7982 8.84717 15.414 8.44113 15.414 7.94656C15.414 7.44893 15.7982 7.04594 16.2741 7.04594C16.7499 7.04594 17.1342 7.44893 17.1342 7.94656ZM15.4947 11.0024C15.8937 11.0024 16.2159 10.6635 16.2159 10.2483C16.2159 9.83005 15.8937 9.49422 15.4947 9.49422C15.0957 9.49422 14.7736 9.8331 14.7736 10.2483C14.7736 10.6635 15.0957 11.0024 15.4947 11.0024ZM18.9145 10.6323C18.9145 11.0475 18.5953 11.3834 18.1993 11.3834C17.8032 11.3834 17.4811 11.0475 17.484 10.6323C17.484 10.2171 17.8032 9.88131 18.1993 9.88131C18.5953 9.88131 18.9145 10.2171 18.9145 10.6323ZM20.3564 12.2584C20.7554 12.2584 21.0775 11.9195 21.0775 11.5013C21.0775 11.083 20.7554 10.7441 20.3564 10.7441C19.9574 10.7441 19.6352 11.083 19.6352 11.5013C19.6352 11.9195 19.9574 12.2584 20.3564 12.2584ZM19.8997 13.2552C19.8997 13.6063 19.6278 13.8933 19.2909 13.8933C18.9539 13.8933 18.682 13.6063 18.682 13.2552C18.682 12.9041 18.9539 12.6171 19.2909 12.6171C19.6278 12.6171 19.8997 12.9041 19.8997 13.2552ZM17.1241 13.0322C17.467 13.0322 17.7478 12.7391 17.7478 12.3789C17.7478 12.0187 17.4699 11.7256 17.1241 11.7256C16.7783 11.7256 16.5005 12.0187 16.5005 12.3789C16.5005 12.7391 16.7813 13.0322 17.1241 13.0322ZM15.0404 11.986C15.0404 12.3432 14.7626 12.6332 14.4227 12.6332C14.0799 12.6332 13.805 12.3432 13.805 11.986C13.805 11.6288 14.0828 11.3388 14.4227 11.3388C14.7656 11.3388 15.0404 11.6288 15.0404 11.986ZM15.9242 14.1689C16.2227 14.1689 16.4621 13.9155 16.4621 13.6072C16.4621 13.2958 16.2227 13.0454 15.9242 13.0454C15.6256 13.0454 15.3862 13.2988 15.3862 13.6072C15.3862 13.9186 15.6256 14.1689 15.9242 14.1689ZM18.6341 14.4764C18.6341 14.7908 18.3887 15.0442 18.0902 15.0442C17.7917 15.0442 17.5493 14.7908 17.5464 14.4764C17.5464 14.1619 17.7917 13.9085 18.0902 13.9085C18.3917 13.9085 18.6341 14.1619 18.6341 14.4764ZM16.8705 15.7012C17.107 15.7012 17.2991 15.4997 17.2991 15.2524C17.2991 15.0051 17.107 14.8036 16.8705 14.8036C16.6341 14.8036 16.442 15.0051 16.442 15.2524C16.4449 15.4997 16.6341 15.7012 16.8705 15.7012ZM16.1017 15.6474C16.1017 15.8703 15.9303 16.0535 15.7145 16.0535C15.4987 16.0535 15.3244 15.8733 15.3273 15.6474C15.3273 15.4246 15.4987 15.2414 15.7145 15.2414C15.9273 15.2414 16.1017 15.4215 16.1017 15.6474ZM14.7027 14.886C14.9569 14.886 15.1638 14.6692 15.1638 14.4036C15.1638 14.138 14.9569 13.9212 14.7027 13.9212C14.4485 13.9212 14.2416 14.138 14.2416 14.4036C14.2416 14.6692 14.4485 14.886 14.7027 14.886ZM13.7546 13.2173C13.7546 13.5287 13.5123 13.7791 13.2167 13.7791C12.9211 13.7791 12.6817 13.5287 12.6788 13.2173C12.6788 12.9059 12.9211 12.6556 13.2167 12.6556C13.5152 12.6556 13.7546 12.9059 13.7546 13.2173ZM17.622 20.8139C18.2604 20.8139 18.7776 20.2705 18.7776 19.6019C18.7776 18.9333 18.2604 18.3899 17.622 18.3899C16.9835 18.3899 16.4663 18.9333 16.4663 19.6019C16.4663 20.2705 16.9835 20.8139 17.622 20.8139ZM15.6483 18.2689C15.6483 18.8276 15.2168 19.2794 14.6848 19.2794C14.1528 19.2794 13.7213 18.8276 13.7213 18.2689C13.7213 17.7102 14.1528 17.2584 14.6848 17.2584C15.2168 17.2584 15.6483 17.7102 15.6483 18.2689ZM13.0073 21.5C13.5452 21.5 13.9797 21.0451 13.9797 20.4803C13.9797 19.9186 13.5452 19.4606 13.0073 19.4606C12.4694 19.4606 12.0349 19.9155 12.0349 20.4803C12.0349 21.0421 12.4694 21.5 13.0073 21.5ZM13.3453 16.5264C13.3453 17.0149 12.967 17.4087 12.503 17.4087C12.039 17.4087 11.6606 17.0118 11.6606 16.5264C11.6606 16.0379 12.039 15.6441 12.503 15.6441C12.967 15.6441 13.3453 16.0379 13.3453 16.5264ZM10.8287 19.6592C11.2927 19.6592 11.6681 19.2653 11.6681 18.7799C11.6681 18.2945 11.2927 17.9007 10.8287 17.9007C10.3646 17.9007 9.98927 18.2945 9.98927 18.7799C9.98632 19.2653 10.3646 19.6592 10.8287 19.6592ZM9.86129 20.3111C9.86129 20.7935 9.48888 21.1873 9.02485 21.1873C8.56378 21.1873 8.18842 20.7935 8.18842 20.3111C8.18842 19.8287 8.56082 19.4349 9.02485 19.4349C9.48593 19.4349 9.86129 19.8257 9.86129 20.3111ZM7.5241 19.1985C7.91719 19.1985 8.23935 18.8627 8.23935 18.4506C8.23935 18.0384 7.92015 17.7026 7.5241 17.7026C7.131 17.7026 6.80884 18.0384 6.80884 18.4506C6.81179 18.8627 7.131 19.1985 7.5241 19.1985ZM10.0462 16.9162C10.0462 17.3283 9.72697 17.6642 9.33092 17.6642C8.93487 17.6642 8.61566 17.3283 8.61566 16.9162C8.61566 16.5041 8.93487 16.1682 9.33092 16.1682C9.72697 16.1682 10.0462 16.501 10.0462 16.9162ZM11.0173 15.4138C11.4133 15.4138 11.7325 15.078 11.7325 14.6628C11.7325 14.2476 11.4133 13.9118 11.0173 13.9118C10.6212 13.9118 10.302 14.2476 10.302 14.6628C10.302 15.078 10.6212 15.4138 11.0173 15.4138ZM9.05892 15.0736C9.05892 15.4338 8.7811 15.7239 8.43824 15.7239C8.09539 15.7239 7.81757 15.4338 7.81757 15.0736C7.81757 14.7133 8.09539 14.4233 8.43824 14.4233C8.7811 14.4233 9.05892 14.7133 9.05892 15.0736ZM6.64046 17.2522C6.98036 17.2522 7.25523 16.9652 7.25523 16.608C7.25523 16.2508 6.98036 15.9639 6.64046 15.9639C6.30057 15.9639 6.0257 16.2508 6.0257 16.608C6.0257 16.9652 6.30057 17.2522 6.64046 17.2522ZM6.7586 14.9052C6.7586 15.2105 6.5192 15.4608 6.22659 15.4608C5.93398 15.4608 5.69458 15.2135 5.69458 14.9052C5.69458 14.5999 5.93398 14.3496 6.22659 14.3496C6.5192 14.3496 6.7586 14.5968 6.7586 14.9052ZM6.21169 13.8892C6.46292 13.8892 6.66686 13.6755 6.66686 13.4099C6.66686 13.1473 6.46292 12.9306 6.21169 12.9306C5.96047 12.9306 5.75653 13.1443 5.75653 13.4099C5.75653 13.6755 5.96047 13.8892 6.21169 13.8892ZM6.84963 12.1762C6.84963 12.399 6.6782 12.5822 6.46244 12.5822C6.24668 12.5822 6.07526 12.399 6.07526 12.1762C6.07526 11.9533 6.24668 11.7701 6.46244 11.7701C6.67525 11.7701 6.84963 11.9533 6.84963 12.1762ZM8.01247 12.364C8.26665 12.364 8.47354 12.1473 8.47354 11.8817C8.47354 11.6161 8.26665 11.3993 8.01247 11.3993C7.75828 11.3993 7.55139 11.6161 7.55139 11.8817C7.55139 12.1473 7.75828 12.364 8.01247 12.364ZM10.2516 11.1172C10.2516 11.4256 10.0093 11.679 9.7137 11.679C9.41519 11.679 9.17578 11.4286 9.17578 11.1172C9.17578 10.8089 9.41814 10.5555 9.7137 10.5555C10.0122 10.5555 10.2516 10.8058 10.2516 11.1172ZM10.1187 13.4615C10.4556 13.4615 10.7305 13.1746 10.7305 12.8204C10.7305 12.4663 10.4556 12.1793 10.1187 12.1793C9.78177 12.1793 9.5069 12.4663 9.5069 12.8204C9.5069 13.1746 9.77881 13.4615 10.1187 13.4615ZM8.56545 13.3773C8.56545 13.6856 8.329 13.9359 8.03344 13.9359C7.73788 13.9359 7.49848 13.6856 7.50143 13.3773C7.50143 13.0689 7.73788 12.8186 8.03344 12.8186C8.32605 12.8186 8.56545 13.0689 8.56545 13.3773ZM2.15269 13.1079C2.78814 13.1079 3.30538 12.5676 3.30538 11.902C3.30538 11.2365 2.78814 10.6961 2.15269 10.6961C1.51723 10.6961 1 11.2365 1 11.902C1 12.5676 1.51723 13.1079 2.15269 13.1079ZM5.75657 9.91895C5.75657 10.4899 5.31619 10.9539 4.7694 10.9539C4.22557 10.9539 3.78223 10.4929 3.78223 9.91895C3.78223 9.34806 4.22261 8.88401 4.7694 8.88401C5.31323 8.88401 5.75657 9.34806 5.75657 9.91895ZM3.74837 8.29815C4.2922 8.29815 4.72963 7.83716 4.72963 7.26932C4.72963 6.70147 4.28924 6.24048 3.74837 6.24048C3.20454 6.24048 2.7671 6.70147 2.7671 7.26932C2.76415 7.83716 3.20454 8.29815 3.74837 8.29815ZM7.1131 6.15752C7.1131 6.64599 6.73479 7.03982 6.27075 7.03982C5.80672 7.03982 5.42841 6.64599 5.42841 6.15752C5.42841 5.66905 5.80672 5.27522 6.27075 5.27522C6.73479 5.27522 7.1131 5.66905 7.1131 6.15752ZM7.30081 9.68929C7.7678 9.68929 8.14611 9.29241 8.14611 8.80394C8.14611 8.31547 7.7678 7.91859 7.30081 7.91859C6.83382 7.91859 6.45551 8.31547 6.45551 8.80394C6.45551 9.29241 6.83382 9.68929 7.30081 9.68929ZM10.3153 8.38508C10.3153 8.80333 9.99313 9.13915 9.59708 9.13915C9.19807 9.13915 8.87591 8.80028 8.87887 8.38508C8.87887 7.96683 9.20103 7.631 9.59708 7.631C9.99313 7.631 10.3153 7.96988 10.3153 8.38508ZM11.5789 9.1458C11.9218 9.1458 12.1996 8.85577 12.1996 8.49858C12.1996 8.14138 11.9218 7.85136 11.5789 7.85136C11.2361 7.85136 10.9583 8.14138 10.9583 8.49858C10.9612 8.85577 11.239 9.1458 11.5789 9.1458ZM13.7409 8.98919C13.7409 9.29143 13.5044 9.53567 13.2177 9.53567C12.931 9.53567 12.6975 9.28838 12.6946 8.98919C12.6946 8.68695 12.931 8.44272 13.2177 8.44272C13.5074 8.44272 13.7409 8.68695 13.7409 8.98919ZM13.4309 7.54136C13.6821 7.54136 13.886 7.32765 13.886 7.0651C13.886 6.80255 13.6821 6.58884 13.4309 6.58884C13.1796 6.58884 12.9757 6.80255 12.9757 7.0651C12.9757 7.32765 13.1796 7.54136 13.4309 7.54136ZM12.697 6.33607C12.697 6.64136 12.4606 6.88865 12.1709 6.88865C11.8783 6.88865 11.6448 6.64136 11.6448 6.33607C11.6448 6.03077 11.8813 5.78349 12.1709 5.78349C12.4606 5.78349 12.697 6.03077 12.697 6.33607ZM10.5515 6.49317C10.8914 6.49317 11.1662 6.20314 11.1662 5.849C11.1662 5.49181 10.8914 5.20483 10.5515 5.20483C10.2116 5.20483 9.93671 5.49486 9.93671 5.849C9.93671 6.20619 10.2116 6.49317 10.5515 6.49317ZM9.29366 5.7416C9.29366 6.1568 8.97149 6.49567 8.57249 6.49567C8.17644 6.49567 7.85427 6.15985 7.85132 5.7416C7.85132 5.3264 8.17348 4.98753 8.57249 4.98753C8.97149 4.98753 9.29366 5.3264 9.29366 5.7416ZM5.90706 4.60991C6.35927 4.60991 6.72281 4.22829 6.72281 3.75509C6.72281 3.28188 6.35631 2.90027 5.90706 2.90027C5.45485 2.90027 5.09131 3.28188 5.09131 3.75509C5.09131 4.22829 5.4578 4.60991 5.90706 4.60991ZM8.92238 3.33786C8.92238 3.75306 8.60022 4.09193 8.20121 4.09193C7.8022 4.09193 7.48004 3.75306 7.48004 3.33786C7.48004 2.92266 7.8022 2.58379 8.20121 2.58379C8.60022 2.58379 8.92238 2.92266 8.92238 3.33786ZM10.1831 4.10164C10.526 4.10164 10.8038 3.81161 10.8038 3.45137C10.8038 3.09112 10.526 2.80109 10.1831 2.80109C9.84027 2.80109 9.56244 3.09112 9.56244 3.45137C9.56244 3.80856 9.84027 4.10164 10.1831 4.10164ZM12.3327 3.94208C12.3327 4.24432 12.0992 4.48856 11.8095 4.48856C11.5228 4.48856 11.2864 4.24127 11.2864 3.94208C11.2864 3.63984 11.5199 3.39561 11.8095 3.39561C12.0992 3.39561 12.3327 3.63984 12.3327 3.94208ZM13.059 5.15884C13.3162 5.15884 13.526 4.93903 13.526 4.67037C13.526 4.39866 13.3162 4.1819 13.059 4.1819C12.8019 4.1819 12.592 4.40171 12.592 4.67037C12.592 4.93903 12.8019 5.15884 13.059 5.15884ZM14.3603 5.52472C14.3603 5.74759 14.1889 5.92771 13.9761 5.92771C13.7633 5.92771 13.5889 5.74759 13.5918 5.52472C13.5918 5.30186 13.7633 5.12173 13.9761 5.12173C14.1889 5.12173 14.3603 5.30186 14.3603 5.52472Z" fill="#6C6B6B"/>
</g>
<defs>
<clipPath id="clip0_2001_2">
<rect width="22" height="21" fill="white" transform="translate(0.5 0.5)"/>
</clipPath>
</defs>
</svg>
