<svg width="22" height="21" viewBox="0 0 22 21" fill="none" xmlns="http://www.w3.org/2000/svg">
<path fill-rule="evenodd" clip-rule="evenodd" d="M16.9342 1.21812C16.9342 1.88976 16.414 2.43624 15.7726 2.43624C15.1313 2.43624 14.6111 1.89282 14.6111 1.22117C14.6111 0.549527 15.1313 0.00305293 15.7726 0C16.414 0 16.9342 0.546474 16.9342 1.21812ZM17.0995 4.57024C17.0995 5.14113 16.6591 5.60213 16.1153 5.60213C15.5714 5.60213 15.131 5.14113 15.131 4.57024C15.131 3.99934 15.5714 3.53835 16.1153 3.53835C16.6591 3.53835 17.0995 4.00239 17.0995 4.57024ZM18.8163 6.005C19.3572 6.005 19.7976 5.54401 19.7976 4.97616C19.7976 4.40832 19.3572 3.94733 18.8163 3.94733C18.2755 3.94733 17.8351 4.40832 17.8351 4.97616C17.8351 5.54401 18.2755 6.005 18.8163 6.005ZM19.3314 7.83433C19.3314 8.31975 18.9561 8.71357 18.492 8.71357C18.028 8.71357 17.6526 8.31975 17.6526 7.83433C17.6526 7.34891 18.028 6.95509 18.492 6.95509C18.9561 6.95509 19.3314 7.34891 19.3314 7.83433ZM20.6547 9.59203C21.1217 9.59203 21.5 9.19515 21.5 8.70668C21.5 8.21821 21.1217 7.82133 20.6547 7.82133C20.1877 7.82133 19.8094 8.21821 19.8094 8.70668C19.8094 9.19515 20.1877 9.59203 20.6547 9.59203ZM16.6342 7.44656C16.6342 7.94419 16.2499 8.34717 15.7741 8.34717C15.2982 8.34717 14.914 7.94113 14.914 7.44656C14.914 6.94893 15.2982 6.54594 15.7741 6.54594C16.2499 6.54594 16.6342 6.94893 16.6342 7.44656ZM14.9947 10.5024C15.3937 10.5024 15.7159 10.1635 15.7159 9.7483C15.7159 9.33005 15.3937 8.99422 14.9947 8.99422C14.5957 8.99422 14.2736 9.3331 14.2736 9.7483C14.2736 10.1635 14.5957 10.5024 14.9947 10.5024ZM18.4145 10.1323C18.4145 10.5475 18.0953 10.8834 17.6993 10.8834C17.3032 10.8834 16.9811 10.5475 16.984 10.1323C16.984 9.71713 17.3032 9.38131 17.6993 9.38131C18.0953 9.38131 18.4145 9.71713 18.4145 10.1323ZM19.8564 11.7584C20.2554 11.7584 20.5775 11.4195 20.5775 11.0013C20.5775 10.583 20.2554 10.2441 19.8564 10.2441C19.4574 10.2441 19.1352 10.583 19.1352 11.0013C19.1352 11.4195 19.4574 11.7584 19.8564 11.7584ZM19.3997 12.7552C19.3997 13.1063 19.1278 13.3933 18.7909 13.3933C18.4539 13.3933 18.182 13.1063 18.182 12.7552C18.182 12.4041 18.4539 12.1171 18.7909 12.1171C19.1278 12.1171 19.3997 12.4041 19.3997 12.7552ZM16.6241 12.5322C16.967 12.5322 17.2478 12.2391 17.2478 11.8789C17.2478 11.5187 16.9699 11.2256 16.6241 11.2256C16.2783 11.2256 16.0005 11.5187 16.0005 11.8789C16.0005 12.2391 16.2813 12.5322 16.6241 12.5322ZM14.5404 11.486C14.5404 11.8432 14.2626 12.1332 13.9227 12.1332C13.5799 12.1332 13.305 11.8432 13.305 11.486C13.305 11.1288 13.5828 10.8388 13.9227 10.8388C14.2656 10.8388 14.5404 11.1288 14.5404 11.486ZM15.4242 13.6689C15.7227 13.6689 15.9621 13.4155 15.9621 13.1072C15.9621 12.7958 15.7227 12.5454 15.4242 12.5454C15.1256 12.5454 14.8862 12.7988 14.8862 13.1072C14.8862 13.4186 15.1256 13.6689 15.4242 13.6689ZM18.1341 13.9764C18.1341 14.2908 17.8887 14.5442 17.5902 14.5442C17.2917 14.5442 17.0493 14.2908 17.0464 13.9764C17.0464 13.6619 17.2917 13.4085 17.5902 13.4085C17.8917 13.4085 18.1341 13.6619 18.1341 13.9764ZM16.3705 15.2012C16.607 15.2012 16.7991 14.9997 16.7991 14.7524C16.7991 14.5051 16.607 14.3036 16.3705 14.3036C16.1341 14.3036 15.942 14.5051 15.942 14.7524C15.9449 14.9997 16.1341 15.2012 16.3705 15.2012ZM15.6017 15.1474C15.6017 15.3703 15.4303 15.5535 15.2145 15.5535C14.9987 15.5535 14.8244 15.3733 14.8273 15.1474C14.8273 14.9246 14.9987 14.7414 15.2145 14.7414C15.4273 14.7414 15.6017 14.9215 15.6017 15.1474ZM14.2027 14.386C14.4569 14.386 14.6638 14.1692 14.6638 13.9036C14.6638 13.638 14.4569 13.4212 14.2027 13.4212C13.9485 13.4212 13.7416 13.638 13.7416 13.9036C13.7416 14.1692 13.9485 14.386 14.2027 14.386ZM13.2546 12.7173C13.2546 13.0287 13.0123 13.2791 12.7167 13.2791C12.4211 13.2791 12.1817 13.0287 12.1788 12.7173C12.1788 12.4059 12.4211 12.1556 12.7167 12.1556C13.0152 12.1556 13.2546 12.4059 13.2546 12.7173ZM17.122 20.3139C17.7604 20.3139 18.2776 19.7705 18.2776 19.1019C18.2776 18.4333 17.7604 17.8899 17.122 17.8899C16.4835 17.8899 15.9663 18.4333 15.9663 19.1019C15.9663 19.7705 16.4835 20.3139 17.122 20.3139ZM15.1483 17.7689C15.1483 18.3276 14.7168 18.7794 14.1848 18.7794C13.6528 18.7794 13.2213 18.3276 13.2213 17.7689C13.2213 17.2102 13.6528 16.7584 14.1848 16.7584C14.7168 16.7584 15.1483 17.2102 15.1483 17.7689ZM12.5073 21C13.0452 21 13.4797 20.5451 13.4797 19.9803C13.4797 19.4186 13.0452 18.9606 12.5073 18.9606C11.9694 18.9606 11.5349 19.4155 11.5349 19.9803C11.5349 20.5421 11.9694 21 12.5073 21ZM12.8453 16.0264C12.8453 16.5149 12.467 16.9087 12.003 16.9087C11.539 16.9087 11.1606 16.5118 11.1606 16.0264C11.1606 15.5379 11.539 15.1441 12.003 15.1441C12.467 15.1441 12.8453 15.5379 12.8453 16.0264ZM10.3287 19.1592C10.7927 19.1592 11.1681 18.7653 11.1681 18.2799C11.1681 17.7945 10.7927 17.4007 10.3287 17.4007C9.86464 17.4007 9.48927 17.7945 9.48927 18.2799C9.48632 18.7653 9.86464 19.1592 10.3287 19.1592ZM9.36129 19.8111C9.36129 20.2935 8.98888 20.6873 8.52485 20.6873C8.06378 20.6873 7.68842 20.2935 7.68842 19.8111C7.68842 19.3287 8.06082 18.9349 8.52485 18.9349C8.98593 18.9349 9.36129 19.3257 9.36129 19.8111ZM7.0241 18.6985C7.41719 18.6985 7.73935 18.3627 7.73935 17.9506C7.73935 17.5384 7.42015 17.2026 7.0241 17.2026C6.631 17.2026 6.30884 17.5384 6.30884 17.9506C6.31179 18.3627 6.631 18.6985 7.0241 18.6985ZM9.54618 16.4162C9.54618 16.8283 9.22697 17.1642 8.83092 17.1642C8.43487 17.1642 8.11566 16.8283 8.11566 16.4162C8.11566 16.0041 8.43487 15.6682 8.83092 15.6682C9.22697 15.6682 9.54618 16.001 9.54618 16.4162ZM10.5173 14.9138C10.9133 14.9138 11.2325 14.578 11.2325 14.1628C11.2325 13.7476 10.9133 13.4118 10.5173 13.4118C10.1212 13.4118 9.802 13.7476 9.802 14.1628C9.802 14.578 10.1212 14.9138 10.5173 14.9138ZM8.55892 14.5736C8.55892 14.9338 8.2811 15.2239 7.93824 15.2239C7.59539 15.2239 7.31757 14.9338 7.31757 14.5736C7.31757 14.2133 7.59539 13.9233 7.93824 13.9233C8.2811 13.9233 8.55892 14.2133 8.55892 14.5736ZM6.14046 16.7522C6.48036 16.7522 6.75523 16.4652 6.75523 16.108C6.75523 15.7508 6.48036 15.4639 6.14046 15.4639C5.80057 15.4639 5.5257 15.7508 5.5257 16.108C5.5257 16.4652 5.80057 16.7522 6.14046 16.7522ZM6.2586 14.4052C6.2586 14.7105 6.0192 14.9608 5.72659 14.9608C5.43398 14.9608 5.19458 14.7135 5.19458 14.4052C5.19458 14.0999 5.43398 13.8496 5.72659 13.8496C6.0192 13.8496 6.2586 14.0968 6.2586 14.4052ZM5.71169 13.3892C5.96292 13.3892 6.16686 13.1755 6.16686 12.9099C6.16686 12.6473 5.96292 12.4306 5.71169 12.4306C5.46047 12.4306 5.25653 12.6443 5.25653 12.9099C5.25653 13.1755 5.46047 13.3892 5.71169 13.3892ZM6.34963 11.6762C6.34963 11.899 6.1782 12.0822 5.96244 12.0822C5.74668 12.0822 5.57526 11.899 5.57526 11.6762C5.57526 11.4533 5.74668 11.2701 5.96244 11.2701C6.17525 11.2701 6.34963 11.4533 6.34963 11.6762ZM7.51247 11.864C7.76665 11.864 7.97354 11.6473 7.97354 11.3817C7.97354 11.1161 7.76665 10.8993 7.51247 10.8993C7.25828 10.8993 7.05139 11.1161 7.05139 11.3817C7.05139 11.6473 7.25828 11.864 7.51247 11.864ZM9.75162 10.6172C9.75162 10.9256 9.50926 11.179 9.2137 11.179C8.91519 11.179 8.67578 10.9286 8.67578 10.6172C8.67578 10.3089 8.91814 10.0555 9.2137 10.0555C9.51222 10.0555 9.75162 10.3058 9.75162 10.6172ZM9.61871 12.9615C9.95565 12.9615 10.2305 12.6746 10.2305 12.3204C10.2305 11.9663 9.95565 11.6793 9.61871 11.6793C9.28177 11.6793 9.0069 11.9663 9.0069 12.3204C9.0069 12.6746 9.27881 12.9615 9.61871 12.9615ZM8.06545 12.8773C8.06545 13.1856 7.829 13.4359 7.53344 13.4359C7.23788 13.4359 6.99848 13.1856 7.00143 12.8773C7.00143 12.5689 7.23788 12.3186 7.53344 12.3186C7.82605 12.3186 8.06545 12.5689 8.06545 12.8773ZM1.65269 12.6079C2.28814 12.6079 2.80538 12.0676 2.80538 11.402C2.80538 10.7365 2.28814 10.1961 1.65269 10.1961C1.01723 10.1961 0.5 10.7365 0.5 11.402C0.5 12.0676 1.01723 12.6079 1.65269 12.6079ZM5.25657 9.41895C5.25657 9.98985 4.81619 10.4539 4.2694 10.4539C3.72557 10.4539 3.28223 9.9929 3.28223 9.41895C3.28223 8.84806 3.72261 8.38401 4.2694 8.38401C4.81323 8.38401 5.25657 8.84806 5.25657 9.41895ZM3.24837 7.79815C3.7922 7.79815 4.22963 7.33716 4.22963 6.76932C4.22963 6.20147 3.78924 5.74048 3.24837 5.74048C2.70454 5.74048 2.2671 6.20147 2.2671 6.76932C2.26415 7.33716 2.70454 7.79815 3.24837 7.79815ZM6.6131 5.65752C6.6131 6.14599 6.23479 6.53982 5.77075 6.53982C5.30672 6.53982 4.92841 6.14599 4.92841 5.65752C4.92841 5.16905 5.30672 4.77522 5.77075 4.77522C6.23479 4.77522 6.6131 5.16905 6.6131 5.65752ZM6.80081 9.18929C7.2678 9.18929 7.64611 8.79241 7.64611 8.30394C7.64611 7.81547 7.2678 7.41859 6.80081 7.41859C6.33382 7.41859 5.95551 7.81547 5.95551 8.30394C5.95551 8.79241 6.33382 9.18929 6.80081 9.18929ZM9.81529 7.88508C9.81529 8.30333 9.49313 8.63915 9.09708 8.63915C8.69807 8.63915 8.37591 8.30028 8.37887 7.88508C8.37887 7.46683 8.70103 7.131 9.09708 7.131C9.49313 7.131 9.81529 7.46988 9.81529 7.88508ZM11.0789 8.6458C11.4218 8.6458 11.6996 8.35577 11.6996 7.99858C11.6996 7.64138 11.4218 7.35136 11.0789 7.35136C10.7361 7.35136 10.4583 7.64138 10.4583 7.99858C10.4612 8.35577 10.739 8.6458 11.0789 8.6458ZM13.2409 8.48919C13.2409 8.79143 13.0044 9.03567 12.7177 9.03567C12.431 9.03567 12.1975 8.78838 12.1946 8.48919C12.1946 8.18695 12.431 7.94272 12.7177 7.94272C13.0074 7.94272 13.2409 8.18695 13.2409 8.48919ZM12.9309 7.04136C13.1821 7.04136 13.386 6.82765 13.386 6.5651C13.386 6.30255 13.1821 6.08884 12.9309 6.08884C12.6796 6.08884 12.4757 6.30255 12.4757 6.5651C12.4757 6.82765 12.6796 7.04136 12.9309 7.04136ZM12.197 5.83607C12.197 6.14136 11.9606 6.38865 11.6709 6.38865C11.3783 6.38865 11.1448 6.14136 11.1448 5.83607C11.1448 5.53077 11.3813 5.28349 11.6709 5.28349C11.9606 5.28349 12.197 5.53077 12.197 5.83607ZM10.0515 5.99317C10.3914 5.99317 10.6662 5.70314 10.6662 5.349C10.6662 4.99181 10.3914 4.70483 10.0515 4.70483C9.71158 4.70483 9.43671 4.99486 9.43671 5.349C9.43671 5.70619 9.71158 5.99317 10.0515 5.99317ZM8.79366 5.2416C8.79366 5.6568 8.47149 5.99567 8.07249 5.99567C7.67644 5.99567 7.35427 5.65985 7.35132 5.2416C7.35132 4.8264 7.67348 4.48753 8.07249 4.48753C8.47149 4.48753 8.79366 4.8264 8.79366 5.2416ZM5.40706 4.10991C5.85927 4.10991 6.22281 3.72829 6.22281 3.25509C6.22281 2.78188 5.85631 2.40027 5.40706 2.40027C4.95485 2.40027 4.59131 2.78188 4.59131 3.25509C4.59131 3.72829 4.9578 4.10991 5.40706 4.10991ZM8.42238 2.83786C8.42238 3.25306 8.10022 3.59193 7.70121 3.59193C7.3022 3.59193 6.98004 3.25306 6.98004 2.83786C6.98004 2.42266 7.3022 2.08379 7.70121 2.08379C8.10022 2.08379 8.42238 2.42266 8.42238 2.83786ZM9.68312 3.60164C10.026 3.60164 10.3038 3.31161 10.3038 2.95137C10.3038 2.59112 10.026 2.30109 9.68312 2.30109C9.34027 2.30109 9.06244 2.59112 9.06244 2.95137C9.06244 3.30856 9.34027 3.60164 9.68312 3.60164ZM11.8327 3.44208C11.8327 3.74432 11.5992 3.98856 11.3095 3.98856C11.0228 3.98856 10.7864 3.74127 10.7864 3.44208C10.7864 3.13984 11.0199 2.89561 11.3095 2.89561C11.5992 2.89561 11.8327 3.13984 11.8327 3.44208ZM12.559 4.65884C12.8162 4.65884 13.026 4.43903 13.026 4.17037C13.026 3.89866 12.8162 3.6819 12.559 3.6819C12.3019 3.6819 12.092 3.90171 12.092 4.17037C12.092 4.43903 12.3019 4.65884 12.559 4.65884ZM13.8603 5.02472C13.8603 5.24759 13.6889 5.42771 13.4761 5.42771C13.2633 5.42771 13.0889 5.24759 13.0918 5.02472C13.0918 4.80186 13.2633 4.62173 13.4761 4.62173C13.6889 4.62173 13.8603 4.80186 13.8603 5.02472Z" fill="white"/>
</svg>
